<svg width="48" height="48" viewBox="0 0 48 48" fill="none" xmlns="http://www.w3.org/2000/svg">
<path d="M24 12.625H20.2083C18.1142 12.625 16.4166 14.3226 16.4166 16.4167C16.4166 18.5107 18.1142 20.2083 20.2083 20.2083M24 12.625V20.2083M24 12.625H27.7916C29.8857 12.625 31.5833 14.3226 31.5833 16.4167C31.5833 18.5107 29.8857 20.2083 27.7916 20.2083M24 20.2083H20.2083M24 20.2083V27.7917M24 20.2083H27.7916M20.2083 20.2083C18.1142 20.2083 16.4166 21.9059 16.4166 24C16.4166 26.0941 18.1142 27.7917 20.2083 27.7917M24 27.7917H20.2083M24 27.7917V31.5833C24 33.6774 22.3024 35.375 20.2083 35.375C18.1142 35.375 16.4166 33.6774 16.4166 31.5833C16.4166 29.4893 18.1142 27.7917 20.2083 27.7917M27.7916 20.2083C29.8857 20.2083 31.5833 21.9059 31.5833 24C31.5833 26.0941 29.8857 27.7917 27.7916 27.7917C25.6975 27.7917 24 26.0941 24 24C24 21.9059 25.6975 20.2083 27.7916 20.2083Z" stroke="#616161" stroke-width="1.6" stroke-linecap="round" stroke-linejoin="round"/>
</svg>
