<svg width="48" height="48" viewBox="0 0 48 48" fill="none" xmlns="http://www.w3.org/2000/svg">
<path d="M12 24C12 21.824 12.536 19.816 13.608 17.976C14.68 16.136 16.136 14.68 17.976 13.608C19.816 12.536 21.824 12 24 12C26.176 12 28.184 12.536 30.024 13.608C31.864 14.68 33.32 16.136 34.392 17.976C35.464 19.816 36 21.824 36 24C36 26.176 35.464 28.184 34.392 30.024C33.32 31.864 31.864 33.32 30.024 34.392C28.184 35.464 26.176 36 24 36C21.824 36 19.816 35.464 17.976 34.392C16.136 33.32 14.68 31.864 13.608 30.024C12.536 28.184 12 26.176 12 24ZM13.992 24C13.992 26.496 14.832 28.696 16.512 30.6C17.28 29.096 18.496 27.664 20.16 26.304C21.824 24.944 23.448 24.088 25.032 23.736C24.792 23.176 24.56 22.672 24.336 22.224C21.584 23.104 18.608 23.544 15.408 23.544C14.784 23.544 14.32 23.536 14.016 23.52C14.016 23.584 14.012 23.664 14.004 23.76C13.996 23.856 13.992 23.936 13.992 24ZM14.304 21.528C14.656 21.56 15.176 21.576 15.864 21.576C18.536 21.576 21.072 21.216 23.472 20.496C22.256 18.336 20.92 16.536 19.464 15.096C18.2 15.736 17.116 16.624 16.212 17.76C15.308 18.896 14.672 20.152 14.304 21.528ZM17.88 31.896C19.688 33.304 21.728 34.008 24 34.008C25.184 34.008 26.36 33.784 27.528 33.336C27.208 30.6 26.584 27.952 25.656 25.392C24.184 25.712 22.7 26.52 21.204 27.816C19.708 29.112 18.6 30.472 17.88 31.896ZM21.552 14.328C22.96 15.784 24.264 17.6 25.464 19.776C27.64 18.864 29.28 17.704 30.384 16.296C28.528 14.76 26.4 13.992 24 13.992C23.184 13.992 22.368 14.104 21.552 14.328ZM26.328 21.48C26.568 21.992 26.84 22.64 27.144 23.424C28.328 23.312 29.616 23.256 31.008 23.256C32 23.256 32.984 23.28 33.96 23.328C33.832 21.152 33.048 19.216 31.608 17.52C30.568 19.072 28.808 20.392 26.328 21.48ZM27.744 25.104C28.56 27.472 29.112 29.904 29.4 32.4C30.664 31.584 31.696 30.536 32.496 29.256C33.296 27.976 33.776 26.592 33.936 25.104C32.768 25.024 31.704 24.984 30.744 24.984C29.864 24.984 28.864 25.024 27.744 25.104Z" fill="#616161"/>
</svg>
