<svg width="48" height="48" viewBox="0 0 48 48" fill="none" xmlns="http://www.w3.org/2000/svg">
<path fill-rule="evenodd" clip-rule="evenodd" d="M33.3333 36H14.6667C13.1939 36 12 34.8061 12 33.3333V14.6667C12 13.1939 13.1939 12 14.6667 12H33.3333C34.8061 12 36 13.1939 36 14.6667V33.3333C36 34.8061 34.8061 36 33.3333 36ZM29.1052 32.6667H32.6667V25.3504C32.6667 22.2548 30.9119 20.7581 28.4609 20.7581C26.0087 20.7581 24.9767 22.6676 24.9767 22.6676V21.1111H21.5444V32.6667H24.9767V26.6007C24.9767 24.9754 25.7249 24.0082 27.1569 24.0082C28.4733 24.0082 29.1052 24.9376 29.1052 26.6007V32.6667ZM15.3333 17.4657C15.3333 18.6432 16.2807 19.598 17.4498 19.598C18.6189 19.598 19.5657 18.6432 19.5657 17.4657C19.5657 16.2881 18.6189 15.3333 17.4498 15.3333C16.2807 15.3333 15.3333 16.2881 15.3333 17.4657ZM19.2565 32.6667H15.6775V21.1111H19.2565V32.6667Z" fill="#616161"/>
</svg>
