<svg width="48" height="48" viewBox="0 0 48 48" fill="none" xmlns="http://www.w3.org/2000/svg">
<rect width="48" height="48" rx="6" fill="#303030"/>
<path fill-rule="evenodd" clip-rule="evenodd" d="M36 16.4268C35.1182 16.8385 34.1687 17.1168 33.1727 17.2412C34.1898 16.6016 34.9702 15.5873 35.3379 14.3791C34.3856 14.9713 33.3333 15.4022 32.2092 15.6332C31.3133 14.6278 30.0328 14 28.6156 14C25.8982 14 23.6936 16.3173 23.6936 19.175C23.6936 19.5807 23.7359 19.9745 23.8204 20.3536C19.7281 20.1374 16.1007 18.0793 13.6707 14.9447C13.2467 15.7117 13.0044 16.6016 13.0044 17.5492C13.0044 19.3438 13.8736 20.9281 15.1949 21.8565C14.3892 21.8313 13.6285 21.5959 12.9635 21.2109V21.2746C12.9635 23.7828 14.661 25.875 16.9149 26.3489C16.5022 26.4703 16.0669 26.531 15.6175 26.531C15.3006 26.531 14.9907 26.4999 14.6906 26.4392C15.3175 28.4944 17.1347 29.9913 19.29 30.0313C17.6052 31.4202 15.4809 32.2479 13.1749 32.2479C12.7776 32.2479 12.3846 32.2242 12 32.1768C14.1793 33.6427 16.7684 34.5 19.5478 34.5C28.6057 34.5 33.5573 26.6154 33.5573 19.7761C33.5573 19.5511 33.5531 19.326 33.5446 19.1054C34.5068 18.3754 35.3421 17.4648 36 16.4268Z" fill="#BDBDBD"/>
</svg>
