<svg width="84" height="84" viewBox="0 0 84 84" fill="none" xmlns="http://www.w3.org/2000/svg">
<g filter="url(#filter0_d_1_754)">
<g filter="url(#filter1_b_1_754)">
<path d="M20 29.2533C20 22.0628 20 18.4676 22.2338 16.2338C24.4676 14 28.0628 14 35.2533 14H48.7467C55.9372 14 59.5324 14 61.7662 16.2338C64 18.4676 64 22.0628 64 29.2533V42.7467C64 49.9372 64 53.5324 61.7662 55.7662C59.5324 58 55.9372 58 48.7467 58H35.2533C28.0628 58 24.4676 58 22.2338 55.7662C20 53.5324 20 49.9372 20 42.7467V29.2533Z" fill="#3F3D64" fill-opacity="0.1"/>
<path d="M20 29.2533C20 22.0628 20 18.4676 22.2338 16.2338C24.4676 14 28.0628 14 35.2533 14H48.7467C55.9372 14 59.5324 14 61.7662 16.2338C64 18.4676 64 22.0628 64 29.2533V42.7467C64 49.9372 64 53.5324 61.7662 55.7662C59.5324 58 55.9372 58 48.7467 58H35.2533C28.0628 58 24.4676 58 22.2338 55.7662C20 53.5324 20 49.9372 20 42.7467V29.2533Z" stroke="url(#paint0_linear_1_754)" stroke-width="0.946989"/>
</g>
<circle cx="42" cy="36" r="17.75" fill="#22212F" stroke="#373646" stroke-width="0.5"/>
<path d="M32 15V57" stroke="#373646" stroke-width="0.5"/>
<path d="M52 15V57" stroke="#373646" stroke-width="0.5"/>
<path d="M63 26L21 26" stroke="#373646" stroke-width="0.5"/>
<path d="M63 46L21 46" stroke="#373646" stroke-width="0.5"/>
<path d="M34.9496 41.8334H32.453L36.257 30.8139H39.2594L43.0581 41.8334H40.5615L37.8013 33.3321H37.7152L34.9496 41.8334ZM34.7935 37.502H40.6907V39.3207H34.7935V37.502ZM46.3951 41.9895C45.8678 41.9895 45.3979 41.898 44.9854 41.7151C44.5729 41.5285 44.2464 41.2541 44.0061 40.8918C43.7694 40.5259 43.651 40.0704 43.651 39.5252C43.651 39.066 43.7353 38.6804 43.9039 38.3683C44.0725 38.0562 44.302 37.8051 44.5926 37.615C44.8831 37.4249 45.2132 37.2814 45.5826 37.1846C45.9557 37.0877 46.3467 37.0196 46.7556 36.9801C47.2363 36.9299 47.6237 36.8833 47.9178 36.8402C48.212 36.7936 48.4254 36.7254 48.5581 36.6358C48.6908 36.5461 48.7572 36.4134 48.7572 36.2376V36.2053C48.7572 35.8645 48.6496 35.6009 48.4344 35.4144C48.2227 35.2278 47.9214 35.1346 47.5304 35.1346C47.1179 35.1346 46.7897 35.226 46.5458 35.409C46.3018 35.5883 46.1404 35.8143 46.0615 36.0869L43.9415 35.9148C44.0491 35.4126 44.2608 34.9785 44.5764 34.6126C44.8921 34.2432 45.2992 33.9598 45.7978 33.7625C46.3 33.5616 46.8811 33.4612 47.5412 33.4612C48.0003 33.4612 48.4397 33.515 48.8594 33.6226C49.2827 33.7302 49.6575 33.897 49.984 34.123C50.314 34.349 50.574 34.6396 50.7642 34.9947C50.9543 35.3462 51.0493 35.7677 51.0493 36.2591V41.8334H48.8756V40.6874H48.811C48.6783 40.9456 48.5007 41.1734 48.2783 41.3707C48.0559 41.5644 47.7887 41.7169 47.4766 41.8281C47.1645 41.9357 46.804 41.9895 46.3951 41.9895ZM47.0515 40.4076C47.3887 40.4076 47.6864 40.3412 47.9447 40.2085C48.203 40.0722 48.4057 39.8892 48.5527 39.6597C48.6998 39.4301 48.7733 39.17 48.7733 38.8795V38.0024C48.7016 38.0491 48.6029 38.0921 48.4774 38.1316C48.3554 38.1674 48.2173 38.2015 48.0631 38.2338C47.9088 38.2625 47.7546 38.2894 47.6004 38.3145C47.4461 38.336 47.3062 38.3558 47.1807 38.3737C46.9116 38.4132 46.6767 38.4759 46.4758 38.562C46.2749 38.6481 46.1189 38.7647 46.0077 38.9118C45.8965 39.0552 45.8409 39.2346 45.8409 39.4498C45.8409 39.7619 45.9539 40.0004 46.1799 40.1654C46.4094 40.3269 46.7 40.4076 47.0515 40.4076Z" fill="white"/>
</g>
<defs>
<filter id="filter0_d_1_754" x="0.58672" y="0.268666" width="82.8266" height="82.8265" filterUnits="userSpaceOnUse" color-interpolation-filters="sRGB">
<feFlood flood-opacity="0" result="BackgroundImageFix"/>
<feColorMatrix in="SourceAlpha" type="matrix" values="0 0 0 0 0 0 0 0 0 0 0 0 0 0 0 0 0 0 127 0" result="hardAlpha"/>
<feOffset dy="5.68193"/>
<feGaussianBlur stdDeviation="9.46988"/>
<feComposite in2="hardAlpha" operator="out"/>
<feColorMatrix type="matrix" values="0 0 0 0 0.952941 0 0 0 0 0.811765 0 0 0 0 0.47451 0 0 0 0.2 0"/>
<feBlend mode="normal" in2="BackgroundImageFix" result="effect1_dropShadow_1_754"/>
<feBlend mode="normal" in="SourceGraphic" in2="effect1_dropShadow_1_754" result="shape"/>
</filter>
<filter id="filter1_b_1_754" x="10.0566" y="4.05662" width="63.8868" height="63.8868" filterUnits="userSpaceOnUse" color-interpolation-filters="sRGB">
<feFlood flood-opacity="0" result="BackgroundImageFix"/>
<feGaussianBlur in="BackgroundImageFix" stdDeviation="4.73494"/>
<feComposite in2="SourceAlpha" operator="in" result="effect1_backgroundBlur_1_754"/>
<feBlend mode="normal" in="SourceGraphic" in2="effect1_backgroundBlur_1_754" result="shape"/>
</filter>
<linearGradient id="paint0_linear_1_754" x1="23.6667" y1="14" x2="44.2917" y2="63.5" gradientUnits="userSpaceOnUse">
<stop stop-color="#B58E31"/>
<stop offset="0.359375" stop-color="white"/>
<stop offset="1" stop-color="#E9A503"/>
</linearGradient>
</defs>
</svg>
