<svg width="24" height="24" viewBox="0 0 24 24" fill="none" xmlns="http://www.w3.org/2000/svg">
<path fill-rule="evenodd" clip-rule="evenodd" d="M21.3333 24H2.66667C1.19391 24 0 22.8061 0 21.3333V2.66667C0 1.19391 1.19391 0 2.66667 0H21.3333C22.8061 0 24 1.19391 24 2.66667V21.3333C24 22.8061 22.8061 24 21.3333 24ZM17.1052 20.6667H20.6667V13.3504C20.6667 10.2548 18.9119 8.75807 16.4609 8.75807C14.0087 8.75807 12.9767 10.6676 12.9767 10.6676V9.11111H9.54444V20.6667H12.9767V14.6007C12.9767 12.9754 13.7249 12.0082 15.1569 12.0082C16.4733 12.0082 17.1052 12.9376 17.1052 14.6007V20.6667ZM3.33333 5.46567C3.33333 6.64322 4.28069 7.598 5.44978 7.598C6.61888 7.598 7.56567 6.64322 7.56567 5.46567C7.56567 4.28812 6.61888 3.33333 5.44978 3.33333C4.28069 3.33333 3.33333 4.28812 3.33333 5.46567ZM7.25647 20.6667H3.67752V9.11111H7.25647V20.6667Z" fill="#BDBDBD"/>
</svg>
