<svg width="84" height="84" viewBox="0 0 84 84" fill="none" xmlns="http://www.w3.org/2000/svg">
<g filter="url(#filter0_d_1_762)">
<g filter="url(#filter1_b_1_762)">
<path d="M20 29.2533C20 22.0628 20 18.4676 22.2338 16.2338C24.4676 14 28.0628 14 35.2533 14H48.7467C55.9372 14 59.5324 14 61.7662 16.2338C64 18.4676 64 22.0628 64 29.2533V42.7467C64 49.9372 64 53.5324 61.7662 55.7662C59.5324 58 55.9372 58 48.7467 58H35.2533C28.0628 58 24.4676 58 22.2338 55.7662C20 53.5324 20 49.9372 20 42.7467V29.2533Z" fill="#3F3D64" fill-opacity="0.1"/>
<path d="M20 29.2533C20 22.0628 20 18.4676 22.2338 16.2338C24.4676 14 28.0628 14 35.2533 14H48.7467C55.9372 14 59.5324 14 61.7662 16.2338C64 18.4676 64 22.0628 64 29.2533V42.7467C64 49.9372 64 53.5324 61.7662 55.7662C59.5324 58 55.9372 58 48.7467 58H35.2533C28.0628 58 24.4676 58 22.2338 55.7662C20 53.5324 20 49.9372 20 42.7467V29.2533Z" stroke="url(#paint0_linear_1_762)" stroke-width="0.946989"/>
</g>
<circle cx="42" cy="36" r="17.75" fill="#22212F" stroke="#373646" stroke-width="0.5"/>
<path d="M32 15V57" stroke="#373646" stroke-width="0.5"/>
<path d="M52 15V57" stroke="#373646" stroke-width="0.5"/>
<path d="M63 26L21 26" stroke="#373646" stroke-width="0.5"/>
<path d="M63 46L21 46" stroke="#373646" stroke-width="0.5"/>
<path fill-rule="evenodd" clip-rule="evenodd" d="M45.0637 27.4564C44.4734 28.1381 44.1162 29.0272 44.1162 29.9996C44.1162 30.9721 44.4734 31.8612 45.0637 32.5429L46.1455 31.4611C45.8286 31.0589 45.6396 30.5514 45.6396 29.9996C45.6396 29.4479 45.8286 28.9404 46.1455 28.5382L45.0637 27.4564ZM45.4597 27.0605L46.5415 28.1422C46.9436 27.8254 47.4512 27.6363 48.0029 27.6363C48.5546 27.6363 49.0622 27.8254 49.4643 28.1422L50.5461 27.0605C49.8645 26.4701 48.9754 26.113 48.0029 26.113C47.0304 26.113 46.1413 26.4701 45.4597 27.0605ZM51.1457 26.8539C50.3412 26.0501 49.2301 25.553 48.0029 25.553C45.5471 25.553 43.5562 27.5438 43.5562 29.9996C43.5562 31.2269 44.0534 32.338 44.8574 33.1426L44.8586 33.1439L44.8601 33.1454C45.6647 33.9492 46.7757 34.4463 48.0029 34.4463C50.4587 34.4463 52.4496 32.4555 52.4496 29.9996C52.4496 28.7724 51.9524 27.6612 51.1485 26.8567L51.1472 26.8554L51.1457 26.8539ZM50.9421 27.4564L49.8603 28.5382C50.1772 28.9404 50.3662 29.4479 50.3662 29.9996C50.3662 30.5514 50.1772 31.0589 49.8603 31.4611L50.9421 32.5428C51.5324 31.8612 51.8896 30.9721 51.8896 29.9996C51.8896 29.0271 51.5324 28.1381 50.9421 27.4564ZM50.5461 32.9388L49.4644 31.8571C49.0622 32.1739 48.5546 32.363 48.0029 32.363C47.4512 32.363 46.9436 32.1739 46.5415 31.8571L45.4597 32.9388C46.1413 33.5291 47.0304 33.8863 48.0029 33.8863C48.9754 33.8863 49.8645 33.5291 50.5461 32.9388ZM48.0029 28.1963C47.007 28.1963 46.1996 29.0037 46.1996 29.9996C46.1996 30.9956 47.007 31.803 48.0029 31.803C48.9989 31.803 49.8062 30.9956 49.8062 29.9996C49.8062 29.0037 48.9989 28.1963 48.0029 28.1963ZM35.9695 26.2487C35.9895 26.2433 36.0105 26.2433 36.0305 26.2487C36.033 26.2496 36.0435 26.2542 36.0678 26.2704C36.1035 26.2942 36.1485 26.3291 36.2251 26.3886L39.0511 28.5866C39.2534 28.7439 39.3076 28.7895 39.3454 28.8406C39.384 28.8927 39.4128 28.9515 39.4302 29.0139C39.4474 29.0752 39.45 29.1459 39.45 29.4023V32.4168C39.45 32.6551 39.4497 32.8158 39.4396 32.9397C39.4298 33.0601 39.4121 33.1191 39.3918 33.1589C39.3407 33.2593 39.2591 33.3409 39.1588 33.392C39.119 33.4123 39.06 33.4299 38.9395 33.4398C38.8156 33.4499 38.655 33.4501 38.4166 33.4501H33.5833C33.345 33.4501 33.1843 33.4499 33.0604 33.4398C32.94 33.4299 32.881 33.4123 32.8412 33.392C32.7408 33.3409 32.6592 33.2593 32.6081 33.1589C32.5878 33.1191 32.5702 33.0601 32.5603 32.9397C32.5502 32.8158 32.55 32.6551 32.55 32.4168V29.4023C32.55 29.1459 32.5526 29.0752 32.5697 29.0139C32.5872 28.9515 32.6159 28.8927 32.6545 28.8406C32.6923 28.7895 32.7466 28.7439 32.9489 28.5866L35.7749 26.3886C35.8514 26.3291 35.8965 26.2942 35.9321 26.2704C35.9564 26.2542 35.967 26.2496 35.9695 26.2487ZM36.1873 25.6696C36.0646 25.6364 35.9353 25.6364 35.8127 25.6696C35.6714 25.7078 35.5512 25.8019 35.4357 25.8922L35.4065 25.915L32.5805 28.113L32.553 28.1344C32.3909 28.2603 32.2652 28.3579 32.1721 28.4838C32.0902 28.5946 32.0291 28.7195 31.9919 28.8522C31.9497 29.003 31.9498 29.1621 31.95 29.3673L31.95 29.4023L31.95 32.4291C31.95 32.652 31.95 32.8373 31.9623 32.9886C31.9752 33.1461 32.003 33.2929 32.0735 33.4313C32.1822 33.6446 32.3555 33.818 32.5688 33.9266C32.7073 33.9972 32.854 34.0249 33.0116 34.0378C33.1628 34.0501 33.3481 34.0501 33.571 34.0501H33.571H38.4289H38.4289C38.6519 34.0501 38.8372 34.0501 38.9884 34.0378C39.1459 34.0249 39.2927 33.9972 39.4312 33.9266C39.6444 33.818 39.8178 33.6446 39.9265 33.4313C39.997 33.2929 40.0248 33.1461 40.0376 32.9886C40.05 32.8373 40.05 32.652 40.05 32.4291V29.4023L40.05 29.3673C40.0501 29.1621 40.0502 29.003 40.008 28.8522C39.9709 28.7195 39.9098 28.5946 39.8278 28.4838C39.7348 28.3579 39.6091 28.2603 39.447 28.1344L39.4194 28.113L36.5935 25.915L36.5643 25.8922C36.4488 25.8019 36.3286 25.7078 36.1873 25.6696ZM34.6764 30.7587C34.6351 30.5982 34.4715 30.5016 34.311 30.5429C34.1506 30.5842 34.054 30.7478 34.0953 30.9083C34.3136 31.7564 35.0832 32.3835 36 32.3835C36.9168 32.3835 37.6864 31.7564 37.9047 30.9083C37.946 30.7478 37.8494 30.5842 37.6889 30.5429C37.5285 30.5016 37.3649 30.5982 37.3236 30.7587C37.1719 31.3482 36.6364 31.7835 36 31.7835C35.3636 31.7835 34.8281 31.3482 34.6764 30.7587ZM44.1362 40.95C44.1362 39.7613 45.035 38.55 46.2899 38.55C47.0182 38.55 47.4924 38.9149 47.7745 39.2461C47.8315 39.313 47.915 39.3516 48.0029 39.3516C48.0908 39.3516 48.1743 39.313 48.2313 39.2461C48.5134 38.9149 48.9876 38.55 49.7159 38.55C50.9708 38.55 51.8696 39.7613 51.8696 40.95C51.8696 41.5312 51.644 42.1033 51.2798 42.6462C50.9158 43.1888 50.4242 43.6859 49.9207 44.1103C49.4183 44.5337 48.9124 44.8778 48.5274 45.116C48.3351 45.235 48.1742 45.3267 48.0607 45.388L48.0275 45.4058L48.0029 45.4188L47.9769 45.405L47.9451 45.388C47.8316 45.3267 47.6708 45.235 47.4785 45.116C47.0934 44.8778 46.5875 44.5337 46.0851 44.1103C45.5817 43.6859 45.09 43.1888 44.726 42.6462C44.3618 42.1033 44.1362 41.5312 44.1362 40.95ZM46.2899 37.95C44.6097 37.95 43.5362 39.5325 43.5362 40.95C43.5362 41.6884 43.8223 42.376 44.2277 42.9805C44.6334 43.5853 45.1695 44.1233 45.6985 44.5691C46.2285 45.0158 46.7596 45.3768 47.1628 45.6263C47.3646 45.7511 47.5356 45.8488 47.6601 45.916C47.7221 45.9495 47.774 45.9762 47.8132 45.9952C47.8325 46.0045 47.8514 46.0132 47.8682 46.0203C47.8762 46.0237 47.8875 46.0282 47.9001 46.0325L47.9125 46.0365C47.9172 46.0379 47.9226 46.0394 47.9285 46.0409L47.9287 46.0409C47.9366 46.0429 47.9656 46.05 48.0029 46.05C48.0403 46.05 48.0693 46.0429 48.0771 46.0409L48.0773 46.0409C48.0895 46.0379 48.0996 46.0346 48.1057 46.0325C48.1183 46.0282 48.1296 46.0237 48.1377 46.0203C48.1545 46.0132 48.1733 46.0045 48.1926 45.9952C48.2318 45.9762 48.2837 45.9495 48.3457 45.916C48.4702 45.8488 48.6413 45.7511 48.843 45.6263C49.2462 45.3768 49.7773 45.0158 50.3074 44.5691C50.8363 44.1233 51.3724 43.5853 51.7781 42.9805C52.1836 42.376 52.4696 41.6884 52.4696 40.95C52.4696 39.5325 51.3961 37.95 49.7159 37.95C48.9375 37.95 48.377 38.273 48.0029 38.619C47.6288 38.273 47.0683 37.95 46.2899 37.95ZM32.55 41.7917C32.55 40.0014 34.0013 38.55 35.7916 38.55C37.582 38.55 39.0333 40.0014 39.0333 41.7917C39.0333 42.666 38.6872 43.4595 38.1245 44.0425C38.1086 44.0532 38.0936 44.0655 38.0796 44.0795C38.0655 44.0936 38.0532 44.1086 38.0425 44.1245C37.4595 44.6872 36.666 45.0333 35.7916 45.0333C34.0013 45.0333 32.55 43.582 32.55 41.7917ZM39.6333 41.7917C39.6333 42.7445 39.2864 43.6164 38.712 44.2878L39.9621 45.5379C40.0793 45.655 40.0793 45.845 39.9621 45.9622C39.8449 46.0793 39.655 46.0793 39.5378 45.9621L38.2878 44.712C37.6164 45.2864 36.7445 45.6334 35.7916 45.6334C33.67 45.6334 31.95 43.9134 31.95 41.7917C31.95 39.67 33.67 37.95 35.7916 37.95C37.9133 37.95 39.6333 39.67 39.6333 41.7917Z" fill="#F5F5F5"/>
</g>
<defs>
<filter id="filter0_d_1_762" x="0.58672" y="0.268666" width="82.8266" height="82.8265" filterUnits="userSpaceOnUse" color-interpolation-filters="sRGB">
<feFlood flood-opacity="0" result="BackgroundImageFix"/>
<feColorMatrix in="SourceAlpha" type="matrix" values="0 0 0 0 0 0 0 0 0 0 0 0 0 0 0 0 0 0 127 0" result="hardAlpha"/>
<feOffset dy="5.68193"/>
<feGaussianBlur stdDeviation="9.46988"/>
<feComposite in2="hardAlpha" operator="out"/>
<feColorMatrix type="matrix" values="0 0 0 0 0.109804 0 0 0 0 0.682353 0 0 0 0 1 0 0 0 0.2 0"/>
<feBlend mode="normal" in2="BackgroundImageFix" result="effect1_dropShadow_1_762"/>
<feBlend mode="normal" in="SourceGraphic" in2="effect1_dropShadow_1_762" result="shape"/>
</filter>
<filter id="filter1_b_1_762" x="10.0566" y="4.05662" width="63.8868" height="63.8868" filterUnits="userSpaceOnUse" color-interpolation-filters="sRGB">
<feFlood flood-opacity="0" result="BackgroundImageFix"/>
<feGaussianBlur in="BackgroundImageFix" stdDeviation="4.73494"/>
<feComposite in2="SourceAlpha" operator="in" result="effect1_backgroundBlur_1_762"/>
<feBlend mode="normal" in="SourceGraphic" in2="effect1_backgroundBlur_1_762" result="shape"/>
</filter>
<linearGradient id="paint0_linear_1_762" x1="23.6667" y1="14" x2="44.2917" y2="63.5" gradientUnits="userSpaceOnUse">
<stop stop-color="#2662FC"/>
<stop offset="0.359375" stop-color="white"/>
<stop offset="1" stop-color="#0DA8FF"/>
</linearGradient>
</defs>
</svg>
