<svg width="26" height="26" viewBox="0 0 26 26" fill="none" xmlns="http://www.w3.org/2000/svg">
<path d="M13 1.625H9.20829C7.11421 1.625 5.41663 3.32259 5.41663 5.41667C5.41663 7.51075 7.11421 9.20833 9.20829 9.20833M13 1.625V9.20833M13 1.625H16.7916C18.8857 1.625 20.5833 3.32259 20.5833 5.41667C20.5833 7.51075 18.8857 9.20833 16.7916 9.20833M13 9.20833H9.20829M13 9.20833V16.7917M13 9.20833H16.7916M9.20829 9.20833C7.11421 9.20833 5.41663 10.9059 5.41663 13C5.41663 15.0941 7.11421 16.7917 9.20829 16.7917M13 16.7917H9.20829M13 16.7917V20.5833C13 22.6774 11.3024 24.375 9.20829 24.375C7.11421 24.375 5.41663 22.6774 5.41663 20.5833C5.41663 18.4893 7.11421 16.7917 9.20829 16.7917M16.7916 9.20833C18.8857 9.20833 20.5833 10.9059 20.5833 13C20.5833 15.0941 18.8857 16.7917 16.7916 16.7917C14.6975 16.7917 13 15.0941 13 13C13 10.9059 14.6975 9.20833 16.7916 9.20833Z" stroke="#BDBDBD" stroke-width="2" stroke-linecap="round" stroke-linejoin="round"/>
</svg>
