<svg width="24" height="24" viewBox="0 0 24 24" fill="none" xmlns="http://www.w3.org/2000/svg">
<path fill-rule="evenodd" clip-rule="evenodd" d="M24 4.42684C23.1182 4.83847 22.1687 5.11683 21.1727 5.24121C22.1898 4.60156 22.9702 3.58729 23.3379 2.37906C22.3856 2.97133 21.3333 3.4022 20.2092 3.63319C19.3133 2.62781 18.0328 2 16.6156 2C13.8982 2 11.6936 4.31726 11.6936 7.17497C11.6936 7.58068 11.7359 7.97454 11.8204 8.3536C7.72812 8.13742 4.10072 6.07927 1.67072 2.94467C1.2467 3.71166 1.00439 4.60155 1.00439 5.54919C1.00439 7.34377 1.87357 8.9281 3.19493 9.85648C2.38916 9.83131 1.62845 9.59589 0.963547 9.21091V9.27457C0.963547 11.7828 2.66103 13.875 4.91495 14.3489C4.5022 14.4703 4.06691 14.531 3.61754 14.531C3.30058 14.531 2.99067 14.4999 2.69061 14.4392C3.31748 16.4944 5.1347 17.9913 7.29001 18.0313C5.6052 19.4202 3.48089 20.2479 1.17485 20.2479C0.777597 20.2479 0.384575 20.2242 0 20.1768C2.17926 21.6427 4.76844 22.5 7.54781 22.5C16.6057 22.5 21.5573 14.6154 21.5573 7.77613C21.5573 7.55106 21.5531 7.326 21.5446 7.10538C22.5068 6.3754 23.3421 5.46479 24 4.42684Z" fill="#BDBDBD"/>
</svg>
