<svg width="12" height="12" viewBox="0 0 12 12" fill="none" xmlns="http://www.w3.org/2000/svg">
<path d="M11.7083 0.364707C11.2919 -0.0979561 10.6106 -0.125197 10.1691 0.310315C9.46269 1.03156 8.8319 1.73923 8.21369 2.48772C7.5955 3.23621 6.98996 3.9847 6.40969 4.77389C5.66538 5.78094 4.94624 6.8424 4.27761 7.91745L1.93108 4.88276C1.57784 4.43368 0.959648 4.32479 0.492889 4.65143C-0.011695 5.00522 -0.15049 5.74013 0.177496 6.27086C0.177496 6.27086 2.91511 10.7889 3.28096 11.3468C3.5711 11.7823 3.92434 12 4.40376 12C4.92103 12 5.28684 11.7822 5.61492 11.1971C5.65861 11.1167 5.70742 11.0265 5.7608 10.9279C6.3394 9.8593 7.45375 7.80121 8.37776 6.39334C8.88235 5.6176 9.4123 4.86921 9.96732 4.12072C10.5098 3.38591 11.1027 2.65101 11.6705 1.99783L11.6957 1.97058C12.0993 1.52158 12.0993 0.813911 11.7082 0.364831L11.7083 0.364707Z" fill="url(#paint0_linear_1_344)"/>
<path d="M11.7083 0.364707C11.2919 -0.0979561 10.6106 -0.125197 10.1691 0.310315C9.46269 1.03156 8.8319 1.73923 8.21369 2.48772C7.5955 3.23621 6.98996 3.9847 6.40969 4.77389C5.66538 5.78094 4.94624 6.8424 4.27761 7.91745L1.93108 4.88276C1.57784 4.43368 0.959648 4.32479 0.492889 4.65143C-0.011695 5.00522 -0.15049 5.74013 0.177496 6.27086C0.177496 6.27086 2.91511 10.7889 3.28096 11.3468C3.5711 11.7823 3.92434 12 4.40376 12C4.92103 12 5.28684 11.7822 5.61492 11.1971C5.65861 11.1167 5.70742 11.0265 5.7608 10.9279C6.3394 9.8593 7.45375 7.80121 8.37776 6.39334C8.88235 5.6176 9.4123 4.86921 9.96732 4.12072C10.5098 3.38591 11.1027 2.65101 11.6705 1.99783L11.6957 1.97058C12.0993 1.52158 12.0993 0.813911 11.7082 0.364831L11.7083 0.364707Z" stroke="url(#paint1_linear_1_344)"/>
<defs>
<linearGradient id="paint0_linear_1_344" x1="-22" y1="6" x2="41.5" y2="-4" gradientUnits="userSpaceOnUse">
<stop stop-color="#B084FF"/>
<stop offset="1" stop-color="#F38DFA"/>
</linearGradient>
<linearGradient id="paint1_linear_1_344" x1="9" y1="-1.78814e-07" x2="6" y2="12" gradientUnits="userSpaceOnUse">
<stop stop-color="#E5BBFF" stop-opacity="0"/>
<stop offset="1" stop-color="#A88AC4"/>
</linearGradient>
</defs>
</svg>
